<svg width="600" height="400" xmlns="http://www.w3.org/2000/svg">
  <defs>
    <linearGradient id="bgGradient" x1="0%" y1="0%" x2="100%" y2="100%">
      <stop offset="0%" stop-color="#4158D0" />
      <stop offset="50%" stop-color="#C850C0" />
      <stop offset="100%" stop-color="#FFCC70" />
    </linearGradient>
  </defs>
  <rect width="600" height="400" fill="url(#bgGradient)" />
  <g transform="translate(300, 200)">
    <!-- 抽象人物图形 -->
    <circle cx="-100" cy="-50" r="30" fill="rgba(255,255,255,0.8)" />
    <rect x="-110" y="-20" width="20" height="40" fill="rgba(255,255,255,0.8)" />
    <rect x="-130" y="20" width="60" height="10" rx="5" fill="rgba(255,255,255,0.8)" />
    <rect x="-120" y="30" width="10" height="40" fill="rgba(255,255,255,0.8)" />
    <rect x="-70" y="30" width="10" height="40" fill="rgba(255,255,255,0.8)" />
    
    <circle cx="0" cy="-60" r="30" fill="rgba(255,255,255,0.8)" />
    <rect x="-10" y="-30" width="20" height="40" fill="rgba(255,255,255,0.8)" />
    <rect x="-30" y="10" width="60" height="10" rx="5" fill="rgba(255,255,255,0.8)" />
    <rect x="-20" y="20" width="10" height="40" fill="rgba(255,255,255,0.8)" />
    <rect x="10" y="20" width="10" height="40" fill="rgba(255,255,255,0.8)" />
    
    <circle cx="100" cy="-50" r="30" fill="rgba(255,255,255,0.8)" />
    <rect x="90" y="-20" width="20" height="40" fill="rgba(255,255,255,0.8)" />
    <rect x="70" y="20" width="60" height="10" rx="5" fill="rgba(255,255,255,0.8)" />
    <rect x="80" y="30" width="10" height="40" fill="rgba(255,255,255,0.8)" />
    <rect x="110" y="30" width="10" height="40" fill="rgba(255,255,255,0.8)" />
  </g>
  <text x="300" y="350" text-anchor="middle" fill="white" font-size="24" font-family="Arial" font-weight="bold">社团活动</text>
</svg>